<svg id="Layer_1" data-name="Layer 1" xmlns="http://www.w3.org/2000/svg" xmlns:xlink="http://www.w3.org/1999/xlink" viewBox="0 0 1050.29 1050.24"><defs><style>.cls-1{fill:url(#linear-gradient);}.cls-2{fill:url(#linear-gradient-2);}.cls-3{fill:#fff;}</style><linearGradient id="linear-gradient" x1="215.39" y1="1102.24" x2="864.61" y2="-22.24" gradientUnits="userSpaceOnUse"><stop offset="0" stop-color="#51bd94"/><stop offset="1" stop-color="#527cbd"/></linearGradient><linearGradient id="linear-gradient-2" x1="380.07" y1="310.72" x2="986.67" y2="1090.33" gradientUnits="userSpaceOnUse"><stop offset="0" stop-color="#51bd94" stop-opacity="0.5"/><stop offset="1" stop-color="#527cbd"/></linearGradient></defs><path class="cls-1" d="M1065.15,201.08V878.92A186.09,186.09,0,0,1,879,1065.12H201.05a186.19,186.19,0,0,1-186.2-186.2V201.08a186.19,186.19,0,0,1,186.2-186.2H879A186.19,186.19,0,0,1,1065.15,201.08Z" transform="translate(-14.85 -14.88)"/><path class="cls-2" d="M787.5,193.32V330.89H727.31V253.5H461.45l120.7,209v.06L372.06,826.5H737.64l34.62-59.91,11-19.15h69.45L772.37,886.68H267.82l178.44,178.44H879A186,186,0,0,0,1052.3,947c1.34-3.46,2.63-7,3.75-10.5a185.38,185.38,0,0,0,9.1-57.56V471Z" transform="translate(-14.85 -14.88)"/><path class="cls-3" d="M783.31,747.44l-11,19.15L737.64,826.5H372.06L582.15,462.59v-.06l-120.7-209H727.31v77.39H787.5V193.32H227.24L447.66,575.15,267.82,886.68H772.37l80.39-139.24ZM331.47,253.5h60.47l120.7,209.09L482.44,515Z" transform="translate(-14.85 -14.88)"/></svg>